<?xml version="1.0" encoding="utf-8"?>
<!-- Uploaded to: SVG Repo, www.svgrepo.com, Generator: SVG Repo Mixer Tools -->
<svg width="800px" height="800px" viewBox="0 0 1024 1024" class="icon"  version="1.1" xmlns="http://www.w3.org/2000/svg"><path d="M78.3 672.1v-482c0-9.3 7.5-16.9 16.9-16.9h835.7c9.3 0 16.9 7.5 16.9 16.9v482c0 9.3-7.5 16.9-16.9 16.9H95.2c-9.3 0-16.9-7.5-16.9-16.9z" fill="#FFFFFF" /><path d="M931.3 701.7H94.7c-16 0-29.1-13-29.1-29.1V189.7c0-16 13-29.1 29.1-29.1h836.5c16 0 29.1 13 29.1 29.1v482.9c0.1 16-13 29.1-29 29.1zM94.7 185.9c-2.1 0-3.8 1.7-3.8 3.8v482.9c0 2.1 1.7 3.8 3.8 3.8h836.5c2.1 0 3.8-1.7 3.8-3.8V189.7c0-2.1-1.7-3.8-3.8-3.8H94.7z" fill="#10457E" /><path d="M174.9 231.1H851v400H174.9z" fill="#9ED5E4" /><path d="M417.7 689v161.3" fill="#FCFCFC" /><path d="M417.7 863c-7 0-12.7-5.7-12.7-12.7V689c0-7 5.7-12.7 12.7-12.7s12.7 5.7 12.7 12.7v161.3c-0.1 7-5.7 12.7-12.7 12.7z" fill="#10457E" /><path d="M608.3 689v161.3" fill="#FCFCFC" /><path d="M608.3 863c-7 0-12.7-5.7-12.7-12.7V689c0-7 5.7-12.7 12.7-12.7 7 0 12.7 5.7 12.7 12.7v161.3c0 7-5.7 12.7-12.7 12.7z" fill="#10457E" /><path d="M704.2 850.3H321.8" fill="#FCFCFC" /><path d="M704.2 863H321.8c-7 0-12.7-5.7-12.7-12.7s5.7-12.7 12.7-12.7h382.4c7 0 12.7 5.7 12.7 12.7s-5.7 12.7-12.7 12.7z" fill="#10457E" /></svg>