<?xml version="1.0" encoding="iso-8859-1"?>

<!DOCTYPE svg PUBLIC "-//W3C//DTD SVG 1.1//EN" "http://www.w3.org/Graphics/SVG/1.1/DTD/svg11.dtd">
<!-- Uploaded to: SVG Repo, www.svgrepo.com, Generator: SVG Repo Mixer Tools -->
<svg version="1.1" id="_x34_" xmlns="http://www.w3.org/2000/svg" xmlns:xlink="http://www.w3.org/1999/xlink" 
	 viewBox="0 0 512 512"  xml:space="preserve">
<g>
	<g>
		<rect x="119.211" y="443.65" style="fill:#7A7A77;" width="106.533" height="10.429"/>
		<polygon style="fill:#7A7A77;" points="222.954,473.216 220.264,475.317 206.66,485.932 138.379,485.932 125.238,475.317 
			122.641,473.216 		"/>
		<rect x="119.211" y="414" style="fill:#7A7A77;" width="106.533" height="10.497"/>
		<path style="fill:#646363;" d="M225.744,405.821v10.019H119.211v-10.019c24.947,0,53.301,0,53.301,0
			S200.798,405.821,225.744,405.821z"/>
		<rect x="119.211" y="385.715" style="fill:#7A7A77;" width="106.533" height="10.429"/>
		<path style="fill:#646363;" d="M225.744,377.535v10.02H119.211v-10.02c24.947,0,53.301,0,53.301,0
			S200.798,377.535,225.744,377.535z"/>
		<path style="fill:#646363;" d="M225.744,435.335v10.019H119.211v-10.019c24.947,0,53.301,0,53.301,0
			S200.798,435.335,225.744,435.335z"/>
		<polygon style="fill:#646363;" points="222.954,473.216 220.264,475.317 125.238,475.317 122.641,473.216 		"/>
		<path style="fill:#E8E5DE;" d="M239.512,402.209v4.499c0,4.021-4.499,7.293-10.02,7.293H115.462c-5.453,0-9.951-3.272-9.951-7.293
			v-4.499c0-4.021,4.499-7.293,9.951-7.293h114.031C235.013,394.916,239.512,398.188,239.512,402.209z"/>
		<path style="fill:#E8E5DE;" d="M239.512,431.79v4.498c0,4.022-4.499,7.362-10.02,7.362H115.462c-5.453,0-9.951-3.34-9.951-7.362
			v-4.498c0-4.022,4.499-7.293,9.951-7.293h114.031C235.013,424.497,239.512,427.768,239.512,431.79z"/>
		<path style="fill:#E8E5DE;" d="M239.512,461.371v4.567c0,4.021-4.499,7.293-10.02,7.293H115.462c-5.453,0-9.951-3.272-9.951-7.293
			v-4.567c0-0.477,0.068-1.023,0.205-1.5c0.954-3.272,4.976-5.793,9.747-5.793h114.031
			C235.013,454.079,239.512,457.35,239.512,461.371z"/>
		<path style="fill:#4A4745;" d="M204.395,484.045h-63.153h-6.579c0,15.44,17.073,27.955,38.134,27.955h0
			c21.061,0,38.134-12.516,38.134-27.955H204.395z"/>
		<path style="fill:#B0DBD1;" d="M342.978,171.489c0,47.371-19.153,90.243-50.233,121.323
			c-31.012,31.013-49.893,41.305-52.619,91.13h-14.382c-14.109,0-31.694,0-31.694,0h-45.121c0,0-16.017,0-29.717,0h-16.358
			c-2.385-43.146-16.835-56.641-40.759-79.542c-3.749-3.612-7.702-7.429-11.86-11.588C19.153,261.732,0,218.861,0,171.489
			S19.153,81.246,50.234,50.234C81.246,19.221,124.118,0,171.489,0c38.033,0,73.204,12.406,101.626,33.398
			c6.952,5.112,13.495,10.769,19.63,16.836c2.113,2.044,4.158,4.225,6.134,6.407c3.817,4.294,7.498,8.793,10.906,13.427
			C330.71,98.491,342.978,133.525,342.978,171.489z"/>
		<path style="opacity:0.2;fill:#FFFFFF;" d="M303.923,62.571L61.957,304.537c-3.681-3.748-7.634-7.634-11.723-11.724
			C19.153,261.732,0,218.861,0,171.489S19.153,81.246,50.234,50.234C81.246,19.221,124.118,0,171.489,0
			c38.033,0,73.204,12.406,101.626,33.398c6.952,5.112,13.495,10.769,19.63,16.836c2.113,2.044,4.158,4.225,6.134,6.407
			C300.583,58.618,302.287,60.594,303.923,62.571z"/>
	</g>
	
		<ellipse transform="matrix(0.7237 -0.6901 0.6901 0.7237 -26.6641 77.702)" style="opacity:0.2;fill:#FFFFFF;" cx="83.704" cy="72.15" rx="45.783" ry="25.55"/>
</g>
</svg>