<?xml version="1.0" encoding="utf-8"?>
<!-- Generator: Adobe Illustrator 25.4.1, SVG Export Plug-In . SVG Version: 6.00 Build 0)  -->
<svg version="1.1" id="Layer_1" xmlns="http://www.w3.org/2000/svg" xmlns:xlink="http://www.w3.org/1999/xlink" x="0px" y="0px"
	 viewBox="0 0 800 800" style="enable-background:new 0 0 800 800;" xml:space="preserve">
<style type="text/css">
	.st0{fill-rule:evenodd;clip-rule:evenodd;fill:#FFFFFF;}
	.st1{opacity:0.5;fill:#9CB2CA;enable-background:new    ;}
	.st2{opacity:0.5;}
	.st3{fill-rule:evenodd;clip-rule:evenodd;fill:#9CB2CA;}
</style>
<path class="st0" d="M717.7,386.2l-26-20.8v343h41.7c13.8,0,25,11.2,25,25s-11.2,25-25,25H66.7c-13.8,0-25-11.2-25-25s11.2-25,25-25
	h41.7v-343l-26,20.8c-10.8,8.6-26.5,6.9-35.1-3.9s-6.9-26.5,3.9-35.1l270.9-216.7c45.7-36.5,110.5-36.5,156.2,0l270.9,216.7
	c10.8,8.6,12.5,24.4,3.9,35.1C744.2,393.1,728.5,394.8,717.7,386.2z M400,225c-50.6,0-91.7,41-91.7,91.7c0,50.6,41,91.7,91.7,91.7
	s91.7-41,91.7-91.7S450.6,225,400,225z M458.2,443.7c-15.3-2.1-34.4-2.1-56.5-2.1h-3.3c-22.2,0-41.3,0-56.6,2.1
	c-16.4,2.2-32.1,7.2-44.8,19.9c-12.7,12.7-17.7,28.5-19.9,44.8c-2.1,15.3-2.1,34.4-2.1,56.5v143.3h50h150h50V565v-4.1
	c0-20.4-0.1-38.1-2.1-52.4c-2.2-16.4-7.2-32.1-19.9-44.8C490.3,450.9,474.6,445.9,458.2,443.7z"/>
<path class="st1" d="M401.6,441.7c22.2,0,41.3,0,56.5,2.1c16.4,2.2,32.1,7.2,44.8,19.9c12.7,12.7,17.7,28.4,19.9,44.8
	c1.9,14.3,2,32,2.1,52.4v147.4H275V565c0-22.2,0-41.3,2.1-56.5c2.2-16.4,7.2-32.1,19.9-44.8c12.7-12.7,28.5-17.7,44.8-19.9
	c15.3-2.1,34.4-2.1,56.5-2.1H401.6z"/>
<g class="st2">
	<path class="st3" d="M358.3,316.7c0-23,18.7-41.7,41.7-41.7s41.7,18.7,41.7,41.7S423,358.4,400,358.4
		C377,358.3,358.3,339.7,358.3,316.7z"/>
	<path class="st3" d="M358.3,316.7c0-23,18.7-41.7,41.7-41.7s41.7,18.7,41.7,41.7S423,358.4,400,358.4
		C377,358.3,358.3,339.7,358.3,316.7z"/>
</g>
<path class="st1" d="M533.3,100h83.3c9.2,0,16.7,7.5,16.7,16.7v138l-116.7-93.3v-44.7C516.7,107.5,524.1,100,533.3,100z"/>
</svg>
