<?xml version="1.0" encoding="utf-8"?>
<!-- Generator: Adobe Illustrator 25.4.1, SVG Export Plug-In . SVG Version: 6.00 Build 0)  -->
<svg version="1.1" id="_x35_" xmlns="http://www.w3.org/2000/svg" xmlns:xlink="http://www.w3.org/1999/xlink" x="0px" y="0px"
	 viewBox="0 0 800 800" style="enable-background:new 0 0 800 800;" xml:space="preserve">
<style type="text/css">
	.st0{fill:#E8E5DE;}
	.st1{fill:#E9E1C3;}
	.st2{fill:#F19261;}
	.st3{fill:#DFD4A4;}
	.st4{fill:#FDF9D8;}
	.st5{opacity:0.68;fill:#FFFFFF;enable-background:new    ;}
	.st6{opacity:6.000000e-02;fill:#FFFFFF;enable-background:new    ;}
	.st7{opacity:6.000000e-02;fill:#251531;enable-background:new    ;}
	.st8{opacity:0.3;fill:#FFFFFF;enable-background:new    ;}
</style>
<g>
	<g>
		<g>
			<path class="st0" d="M433.9,800h-67.8c-5.5,0-39.5-9.9-39.5-9.9L306.8,746c0-0.1,0-0.1,0.1-0.1h186.2c0.1,0,0.1,0,0.1,0.1
				L473.5,790C473.5,790,439.4,800,433.9,800z"/>
			<path class="st1" d="M662.4,262.4c0,72.5-29.4,138-76.9,185.6c-47.4,47.4-61.5,64.5-61.5,106.3H276c0-41.8-14.1-58.9-61.5-106.3
				c-47.4-47.5-76.9-113.1-76.9-185.6c0-28.3,4.4-55.5,12.9-81c12.9-39.9,35.1-75.6,64-104.6s64.6-51.2,104.6-64
				C344.5,4.4,371.7,0,400,0c53.6,0,103.4,16.1,145,43.7c14.6,9.7,28.2,20.8,40.5,33.1c12.3,12.4,23.5,25.9,33.1,40.6
				C646.4,159,662.4,208.8,662.4,262.4z"/>
			<polygon class="st2" points="525.8,554.3 524.4,573.7 521.2,618.7 520.4,630.2 517.1,675.3 516.3,686.8 513.1,731.8 510.9,762.7 
				289.1,762.7 287.7,743.6 286.9,731.8 283.7,686.8 283.6,686.8 282.9,675.3 279.6,630.2 278.8,618.7 275.6,573.7 274.2,554.3 			
				"/>
			<g>
				<path class="st3" d="M377.4,522.9c-3.4,0.4-6.9-1.4-8.4-4.6l-71.1-150.5c-1.9-4.1-0.2-9,3.9-10.9c4.1-1.9,9-0.2,10.9,3.9
					l71.1,150.5c1.9,4.1,0.2,9-3.9,10.9C379.1,522.5,378.3,522.8,377.4,522.9z"/>
				<path class="st3" d="M422.6,522.9c3.4,0.4,6.9-1.4,8.4-4.6l71.1-150.5c1.9-4.1,0.2-9-3.9-10.9c-4.1-1.9-9-0.2-10.9,3.9
					l-71.1,150.5c-1.9,4.1-0.2,9,3.9,10.9C420.9,522.5,421.7,522.8,422.6,522.9z"/>
			</g>
			<g>
				<path class="st4" d="M534.3,577.3v37.9c0,2-1.6,3.5-3.6,3.5H269.3c-2,0-3.6-1.5-3.6-3.5v-37.9c0-2,1.6-3.6,3.6-3.6h261.4
					C532.7,573.7,534.3,575.3,534.3,577.3z"/>
				<path class="st4" d="M533.3,632.3v40.9c0,1.1-0.9,2.1-2.1,2.1H268.8c-1.1,0-2.1-0.9-2.1-2.1v-40.9c0-1.2,0.9-2.2,2.1-2.2h262.4
					C532.4,630.2,533.3,631.1,533.3,632.3z"/>
				<path class="st4" d="M529.9,690.7v37.2c0,2.2-1.9,3.9-4,3.9H274.1c-2.2,0-4-1.8-4-3.9v-37.2c0-2.2,1.9-3.9,4-3.9h251.7
					C528,686.8,529.9,688.5,529.9,690.7z"/>
				<path class="st5" d="M360.1,573.7v45h-90.8c-2,0-3.6-1.5-3.6-3.5v-37.9c0-2,1.6-3.6,3.6-3.6H360.1z"/>
				<path class="st5" d="M360.1,630.2v45.1h-91.3c-1.1,0-2.1-0.9-2.1-2.1v-40.9c0-1.2,0.9-2.2,2.1-2.2L360.1,630.2L360.1,630.2z"/>
				<path class="st5" d="M360.1,686.8v45h-85.9c-2.2,0-4-1.7-4-3.9v-37.2c0-2.2,1.9-3.9,4-3.9H360.1L360.1,686.8z"/>
			</g>
		</g>
		<path class="st6" d="M400,0v800h-34c-2.4,0-10.3-2-18.3-4c-2.2-0.6-4.3-1.1-6.4-1.7c-1.4-0.4-2.8-0.8-4.1-1.1
			c-6.1-1.8-10.7-3.1-10.7-3.1l-6.1-13.7l-0.1-0.1l-6-13.5h-25.3l-1.4-19.2l-0.8-11.7h-12.7c-2.2,0-4-1.7-4-3.9v-37.2
			c0-2.2,1.9-3.9,4-3.9h9.5l-0.8-11.5h-14c-1.1,0-2.1-0.9-2.1-2.1v-40.9c0-1.2,0.9-2.2,2.1-2.2h10.8l-0.8-11.5h-9.5
			c-2,0-3.6-1.5-3.6-3.5v-37.9c0-2,1.6-3.6,3.6-3.6h6.3l-1.3-19.3h1.8c0-41.8-14.1-58.9-61.5-106.3
			c-47.4-47.5-76.9-113.1-76.9-185.6c0-28.3,4.4-55.5,12.9-81c12.9-39.9,35.1-75.6,64-104.6s64.6-51.2,104.6-64
			C344.5,4.4,371.7,0,400,0z"/>
	</g>
	<path class="st7" d="M518.8,554.5l-7.3-6c0.3-43,15-60.4,64.2-108.9c49.2-48.5,80.1-115.8,80.7-190.3c0.2-32.2-5.1-63.1-15.2-91.7
		c13.7,31.8,21.3,66.9,21.3,103.7c0,72.5-29.4,138-76.9,185.6c-47.4,47.4-61.5,64.5-61.5,106.3L518.8,554.5z"/>
	
		<ellipse transform="matrix(0.6904 -0.7234 0.7234 0.6904 -20.5806 237.0898)" class="st8" cx="266.7" cy="142.6" rx="72.9" ry="65.7"/>
</g>
</svg>
